<mxfile host="Electron" modified="2024-05-09T15:22:26.293Z" agent="Mozilla/5.0 (Windows NT 10.0; Win64; x64) AppleWebKit/537.36 (KHTML, like Gecko) draw.io/23.1.5 Chrome/120.0.6099.109 Electron/28.1.0 Safari/537.36" etag="d6wasYCuCptnJXOgr2G3" version="23.1.5" type="device">
  <diagram name="Page-1" id="ThPhWivdQTX140JAWEt-">
    <mxGraphModel dx="1050" dy="638" grid="0" gridSize="10" guides="1" tooltips="1" connect="1" arrows="1" fold="1" page="1" pageScale="1" pageWidth="1100" pageHeight="850" background="#ffffff" math="0" shadow="0">
      <root>
        <mxCell id="0" />
        <mxCell id="1" parent="0" />
        <mxCell id="d-oLFdEzoJcVGDbmJ4wt-2" value="" style="rounded=0;whiteSpace=wrap;html=1;fillColor=none;strokeColor=#000000;" parent="1" vertex="1">
          <mxGeometry x="348" y="57" width="485" height="549" as="geometry" />
        </mxCell>
        <mxCell id="d-oLFdEzoJcVGDbmJ4wt-4" value="" style="shape=umlActor;verticalLabelPosition=bottom;verticalAlign=top;html=1;outlineConnect=0;strokeColor=#000000;" parent="1" vertex="1">
          <mxGeometry x="194" y="265" width="30" height="60" as="geometry" />
        </mxCell>
        <mxCell id="d-oLFdEzoJcVGDbmJ4wt-5" value="Actor" style="shape=umlActor;verticalLabelPosition=bottom;verticalAlign=top;html=1;outlineConnect=0;strokeColor=#000000;" parent="1" vertex="1">
          <mxGeometry x="915" y="157" width="30" height="60" as="geometry" />
        </mxCell>
        <mxCell id="d-oLFdEzoJcVGDbmJ4wt-11" value="User" style="text;html=1;strokeColor=none;fillColor=none;align=center;verticalAlign=middle;whiteSpace=wrap;rounded=0;fontColor=#000000;" parent="1" vertex="1">
          <mxGeometry x="179" y="334" width="60" height="30" as="geometry" />
        </mxCell>
        <mxCell id="d-oLFdEzoJcVGDbmJ4wt-14" value="Actor" style="shape=umlActor;verticalLabelPosition=bottom;verticalAlign=top;html=1;outlineConnect=0;strokeColor=#000000;" parent="1" vertex="1">
          <mxGeometry x="912.5" y="398" width="30" height="60" as="geometry" />
        </mxCell>
        <mxCell id="d-oLFdEzoJcVGDbmJ4wt-17" value="" style="ellipse;whiteSpace=wrap;html=1;fillColor=none;strokeColor=#000000;" parent="1" vertex="1">
          <mxGeometry x="377.5" y="175" width="151" height="66" as="geometry" />
        </mxCell>
        <mxCell id="d-oLFdEzoJcVGDbmJ4wt-18" value="" style="ellipse;whiteSpace=wrap;html=1;fillColor=none;strokeColor=#000000;" parent="1" vertex="1">
          <mxGeometry x="371" y="359" width="151" height="66" as="geometry" />
        </mxCell>
        <mxCell id="d-oLFdEzoJcVGDbmJ4wt-27" value="Book a Parking Spot" style="text;html=1;strokeColor=none;fillColor=none;align=center;verticalAlign=middle;whiteSpace=wrap;rounded=0;fontColor=#000000;" parent="1" vertex="1">
          <mxGeometry x="388.5" y="196" width="116" height="30" as="geometry" />
        </mxCell>
        <mxCell id="d-oLFdEzoJcVGDbmJ4wt-28" value="Recieve Access Code" style="text;html=1;strokeColor=none;fillColor=none;align=center;verticalAlign=middle;whiteSpace=wrap;rounded=0;fontColor=#000000;" parent="1" vertex="1">
          <mxGeometry x="391.5" y="383" width="116" height="30" as="geometry" />
        </mxCell>
        <mxCell id="d-oLFdEzoJcVGDbmJ4wt-38" value="" style="ellipse;whiteSpace=wrap;html=1;fillColor=none;strokeColor=#000000;" parent="1" vertex="1">
          <mxGeometry x="645" y="448" width="151" height="66" as="geometry" />
        </mxCell>
        <mxCell id="d-oLFdEzoJcVGDbmJ4wt-39" value="Generate Access Code" style="text;html=1;strokeColor=none;fillColor=none;align=center;verticalAlign=middle;whiteSpace=wrap;rounded=0;fontColor=#000000;" parent="1" vertex="1">
          <mxGeometry x="679" y="466" width="116" height="30" as="geometry" />
        </mxCell>
        <mxCell id="d-oLFdEzoJcVGDbmJ4wt-40" value="" style="endArrow=none;html=1;rounded=0;strokeColor=#000000;entryX=0;entryY=0.5;entryDx=0;entryDy=0;exitX=1;exitY=0.3333333333333333;exitDx=0;exitDy=0;exitPerimeter=0;" parent="1" source="d-oLFdEzoJcVGDbmJ4wt-4" target="d-oLFdEzoJcVGDbmJ4wt-3" edge="1">
          <mxGeometry width="50" height="50" relative="1" as="geometry">
            <mxPoint x="230" y="281" as="sourcePoint" />
            <mxPoint x="371" y="103" as="targetPoint" />
          </mxGeometry>
        </mxCell>
        <mxCell id="d-oLFdEzoJcVGDbmJ4wt-41" value="" style="endArrow=none;html=1;rounded=0;strokeColor=#000000;entryX=0;entryY=0.5;entryDx=0;entryDy=0;exitX=1;exitY=0.3333333333333333;exitDx=0;exitDy=0;exitPerimeter=0;" parent="1" source="d-oLFdEzoJcVGDbmJ4wt-4" target="d-oLFdEzoJcVGDbmJ4wt-16" edge="1">
          <mxGeometry width="50" height="50" relative="1" as="geometry">
            <mxPoint x="234" y="296" as="sourcePoint" />
            <mxPoint x="381" y="134" as="targetPoint" />
          </mxGeometry>
        </mxCell>
        <mxCell id="d-oLFdEzoJcVGDbmJ4wt-42" value="" style="endArrow=none;html=1;rounded=0;strokeColor=#000000;entryX=0;entryY=0.5;entryDx=0;entryDy=0;exitX=1;exitY=0.3333333333333333;exitDx=0;exitDy=0;exitPerimeter=0;" parent="1" source="d-oLFdEzoJcVGDbmJ4wt-4" target="d-oLFdEzoJcVGDbmJ4wt-17" edge="1">
          <mxGeometry width="50" height="50" relative="1" as="geometry">
            <mxPoint x="234" y="295" as="sourcePoint" />
            <mxPoint x="384" y="294" as="targetPoint" />
          </mxGeometry>
        </mxCell>
        <mxCell id="d-oLFdEzoJcVGDbmJ4wt-43" value="" style="endArrow=none;html=1;rounded=0;strokeColor=#000000;exitX=1;exitY=0.3333333333333333;exitDx=0;exitDy=0;exitPerimeter=0;entryX=0;entryY=0.5;entryDx=0;entryDy=0;" parent="1" source="d-oLFdEzoJcVGDbmJ4wt-4" target="d-oLFdEzoJcVGDbmJ4wt-18" edge="1">
          <mxGeometry width="50" height="50" relative="1" as="geometry">
            <mxPoint x="234" y="295" as="sourcePoint" />
            <mxPoint x="381" y="374" as="targetPoint" />
          </mxGeometry>
        </mxCell>
        <mxCell id="d-oLFdEzoJcVGDbmJ4wt-44" value="" style="endArrow=none;html=1;rounded=0;strokeColor=#000000;entryX=0;entryY=0.3333333333333333;entryDx=0;entryDy=0;exitX=1;exitY=0.5;exitDx=0;exitDy=0;entryPerimeter=0;" parent="1" source="d-oLFdEzoJcVGDbmJ4wt-21" target="d-oLFdEzoJcVGDbmJ4wt-5" edge="1">
          <mxGeometry width="50" height="50" relative="1" as="geometry">
            <mxPoint x="744" y="285" as="sourcePoint" />
            <mxPoint x="894" y="143" as="targetPoint" />
          </mxGeometry>
        </mxCell>
        <mxCell id="d-oLFdEzoJcVGDbmJ4wt-45" value="" style="endArrow=none;html=1;rounded=0;strokeColor=#000000;entryX=0;entryY=0.3333333333333333;entryDx=0;entryDy=0;exitX=1;exitY=0.5;exitDx=0;exitDy=0;entryPerimeter=0;" parent="1" source="d-oLFdEzoJcVGDbmJ4wt-34" target="d-oLFdEzoJcVGDbmJ4wt-5" edge="1">
          <mxGeometry width="50" height="50" relative="1" as="geometry">
            <mxPoint x="792" y="184" as="sourcePoint" />
            <mxPoint x="914" y="168" as="targetPoint" />
          </mxGeometry>
        </mxCell>
        <mxCell id="d-oLFdEzoJcVGDbmJ4wt-46" value="" style="endArrow=none;html=1;rounded=0;strokeColor=#000000;entryX=0;entryY=0.3333333333333333;entryDx=0;entryDy=0;exitX=0.987;exitY=0.424;exitDx=0;exitDy=0;entryPerimeter=0;exitPerimeter=0;" parent="1" source="d-oLFdEzoJcVGDbmJ4wt-22" target="d-oLFdEzoJcVGDbmJ4wt-14" edge="1">
          <mxGeometry width="50" height="50" relative="1" as="geometry">
            <mxPoint x="782" y="364" as="sourcePoint" />
            <mxPoint x="904" y="360" as="targetPoint" />
          </mxGeometry>
        </mxCell>
        <mxCell id="d-oLFdEzoJcVGDbmJ4wt-48" value="" style="endArrow=none;html=1;rounded=0;strokeColor=#000000;exitX=1;exitY=0.5;exitDx=0;exitDy=0;entryX=0;entryY=0.3333333333333333;entryDx=0;entryDy=0;entryPerimeter=0;" parent="1" source="d-oLFdEzoJcVGDbmJ4wt-38" target="d-oLFdEzoJcVGDbmJ4wt-14" edge="1">
          <mxGeometry width="50" height="50" relative="1" as="geometry">
            <mxPoint x="774" y="420" as="sourcePoint" />
            <mxPoint x="912" y="418" as="targetPoint" />
          </mxGeometry>
        </mxCell>
        <mxCell id="d-oLFdEzoJcVGDbmJ4wt-49" value="Parking Management System" style="text;html=1;strokeColor=none;fillColor=none;align=center;verticalAlign=middle;whiteSpace=wrap;rounded=0;fontColor=#000000;" parent="1" vertex="1">
          <mxGeometry x="487" y="55" width="214" height="30" as="geometry" />
        </mxCell>
        <mxCell id="d-oLFdEzoJcVGDbmJ4wt-50" value="" style="endArrow=none;html=1;rounded=0;strokeColor=#000000;entryX=0;entryY=0.3333333333333333;entryDx=0;entryDy=0;entryPerimeter=0;exitX=1;exitY=0.5;exitDx=0;exitDy=0;" parent="1" source="d-oLFdEzoJcVGDbmJ4wt-3" target="d-oLFdEzoJcVGDbmJ4wt-5" edge="1">
          <mxGeometry width="50" height="50" relative="1" as="geometry">
            <mxPoint x="764" y="140" as="sourcePoint" />
            <mxPoint x="893" y="81" as="targetPoint" />
          </mxGeometry>
        </mxCell>
        <mxCell id="_IG5eKqt5H05pdtFpNyz-4" value="" style="group" parent="1" vertex="1" connectable="0">
          <mxGeometry x="465" y="240" width="263" height="60" as="geometry" />
        </mxCell>
        <mxCell id="_IG5eKqt5H05pdtFpNyz-20" value="" style="group" parent="_IG5eKqt5H05pdtFpNyz-4" vertex="1" connectable="0">
          <mxGeometry y="16" width="263" height="43" as="geometry" />
        </mxCell>
        <mxCell id="d-oLFdEzoJcVGDbmJ4wt-3" value="" style="ellipse;whiteSpace=wrap;html=1;fillColor=none;strokeColor=#000000;" parent="_IG5eKqt5H05pdtFpNyz-20" vertex="1">
          <mxGeometry width="263" height="43" as="geometry" />
        </mxCell>
        <mxCell id="d-oLFdEzoJcVGDbmJ4wt-23" value="Register/Login to the system" style="text;html=1;strokeColor=none;fillColor=none;align=center;verticalAlign=middle;whiteSpace=wrap;rounded=0;fontColor=#000000;" parent="_IG5eKqt5H05pdtFpNyz-20" vertex="1">
          <mxGeometry x="35.70529801324503" y="7.363636363636363" width="202.03973509933772" height="27.272727272727266" as="geometry" />
        </mxCell>
        <mxCell id="_IG5eKqt5H05pdtFpNyz-6" value="" style="group" parent="1" vertex="1" connectable="0">
          <mxGeometry x="374" y="91" width="151" height="66" as="geometry" />
        </mxCell>
        <mxCell id="d-oLFdEzoJcVGDbmJ4wt-16" value="" style="ellipse;whiteSpace=wrap;html=1;fillColor=none;strokeColor=#000000;" parent="_IG5eKqt5H05pdtFpNyz-6" vertex="1">
          <mxGeometry width="151" height="66" as="geometry" />
        </mxCell>
        <mxCell id="d-oLFdEzoJcVGDbmJ4wt-26" value="View Available Parking Spots" style="text;html=1;strokeColor=none;fillColor=none;align=center;verticalAlign=middle;whiteSpace=wrap;rounded=0;fontColor=#000000;" parent="_IG5eKqt5H05pdtFpNyz-6" vertex="1">
          <mxGeometry x="17.5" y="18" width="116" height="30" as="geometry" />
        </mxCell>
        <mxCell id="_IG5eKqt5H05pdtFpNyz-7" value="" style="group" parent="1" vertex="1" connectable="0">
          <mxGeometry x="651" y="97" width="151" height="66" as="geometry" />
        </mxCell>
        <mxCell id="d-oLFdEzoJcVGDbmJ4wt-35" value="View and Manage Bookings" style="text;html=1;strokeColor=none;fillColor=none;align=center;verticalAlign=middle;whiteSpace=wrap;rounded=0;fontColor=#000000;" parent="_IG5eKqt5H05pdtFpNyz-7" vertex="1">
          <mxGeometry x="15" y="14" width="116" height="30" as="geometry" />
        </mxCell>
        <mxCell id="_IG5eKqt5H05pdtFpNyz-11" value="Manage Parking Spots" style="ellipse;whiteSpace=wrap;html=1;fillColor=none;strokeColor=#000000;" parent="1" vertex="1">
          <mxGeometry x="645" y="170" width="151" height="66" as="geometry" />
        </mxCell>
        <mxCell id="_IG5eKqt5H05pdtFpNyz-12" value="Make Payments" style="ellipse;whiteSpace=wrap;html=1;fillColor=none;strokeColor=#000000;" parent="1" vertex="1">
          <mxGeometry x="371" y="446" width="151" height="66" as="geometry" />
        </mxCell>
        <mxCell id="_IG5eKqt5H05pdtFpNyz-8" value="" style="group" parent="1" vertex="1" connectable="0">
          <mxGeometry x="460" y="300" width="261" height="55" as="geometry" />
        </mxCell>
        <mxCell id="_IG5eKqt5H05pdtFpNyz-10" value="" style="group" parent="_IG5eKqt5H05pdtFpNyz-8" vertex="1" connectable="0">
          <mxGeometry width="261" height="54" as="geometry" />
        </mxCell>
        <mxCell id="_IG5eKqt5H05pdtFpNyz-18" value="" style="group" parent="_IG5eKqt5H05pdtFpNyz-10" vertex="1" connectable="0">
          <mxGeometry y="7" width="261" height="47" as="geometry" />
        </mxCell>
        <mxCell id="d-oLFdEzoJcVGDbmJ4wt-21" value="" style="ellipse;whiteSpace=wrap;html=1;fillColor=none;strokeColor=#000000;" parent="_IG5eKqt5H05pdtFpNyz-18" vertex="1">
          <mxGeometry width="261" height="47" as="geometry" />
        </mxCell>
        <mxCell id="d-oLFdEzoJcVGDbmJ4wt-30" value="Check Charges Amount" style="text;html=1;strokeColor=none;fillColor=none;align=center;verticalAlign=middle;whiteSpace=wrap;rounded=0;fontColor=#000000;" parent="_IG5eKqt5H05pdtFpNyz-18" vertex="1">
          <mxGeometry x="27.49715231788079" y="11" width="200.50331125827813" height="25" as="geometry" />
        </mxCell>
        <mxCell id="d-oLFdEzoJcVGDbmJ4wt-34" value="" style="ellipse;whiteSpace=wrap;html=1;fillColor=none;strokeColor=#000000;" parent="1" vertex="1">
          <mxGeometry x="645" y="91" width="151" height="66" as="geometry" />
        </mxCell>
        <mxCell id="_IG5eKqt5H05pdtFpNyz-14" value="" style="endArrow=none;html=1;rounded=0;exitX=1;exitY=0.3333333333333333;exitDx=0;exitDy=0;exitPerimeter=0;entryX=0;entryY=0.5;entryDx=0;entryDy=0;" parent="1" source="d-oLFdEzoJcVGDbmJ4wt-4" target="d-oLFdEzoJcVGDbmJ4wt-21" edge="1">
          <mxGeometry width="50" height="50" relative="1" as="geometry">
            <mxPoint x="727" y="293" as="sourcePoint" />
            <mxPoint x="777" y="243" as="targetPoint" />
          </mxGeometry>
        </mxCell>
        <mxCell id="_IG5eKqt5H05pdtFpNyz-16" value="" style="group" parent="1" vertex="1" connectable="0">
          <mxGeometry x="645" y="369" width="151" height="66" as="geometry" />
        </mxCell>
        <mxCell id="_IG5eKqt5H05pdtFpNyz-28" value="" style="group" parent="_IG5eKqt5H05pdtFpNyz-16" vertex="1" connectable="0">
          <mxGeometry x="-4" width="151" height="66" as="geometry" />
        </mxCell>
        <mxCell id="d-oLFdEzoJcVGDbmJ4wt-22" value="" style="ellipse;whiteSpace=wrap;html=1;fillColor=none;strokeColor=#000000;" parent="_IG5eKqt5H05pdtFpNyz-28" vertex="1">
          <mxGeometry width="151" height="66" as="geometry" />
        </mxCell>
        <mxCell id="d-oLFdEzoJcVGDbmJ4wt-36" value="Verify Access Code" style="text;html=1;strokeColor=none;fillColor=none;align=center;verticalAlign=middle;whiteSpace=wrap;rounded=0;fontColor=#000000;" parent="_IG5eKqt5H05pdtFpNyz-28" vertex="1">
          <mxGeometry x="17.5" y="18" width="116" height="30" as="geometry" />
        </mxCell>
        <mxCell id="_IG5eKqt5H05pdtFpNyz-17" value="" style="endArrow=none;html=1;rounded=0;entryX=1;entryY=0.3333333333333333;entryDx=0;entryDy=0;entryPerimeter=0;exitX=0;exitY=0.5;exitDx=0;exitDy=0;" parent="1" source="_IG5eKqt5H05pdtFpNyz-12" target="d-oLFdEzoJcVGDbmJ4wt-4" edge="1">
          <mxGeometry width="50" height="50" relative="1" as="geometry">
            <mxPoint x="714" y="361" as="sourcePoint" />
            <mxPoint x="764" y="311" as="targetPoint" />
          </mxGeometry>
        </mxCell>
        <mxCell id="_IG5eKqt5H05pdtFpNyz-21" value="" style="endArrow=none;html=1;rounded=0;exitX=1;exitY=0.5;exitDx=0;exitDy=0;entryX=0;entryY=0.3333333333333333;entryDx=0;entryDy=0;entryPerimeter=0;" parent="1" source="_IG5eKqt5H05pdtFpNyz-11" target="d-oLFdEzoJcVGDbmJ4wt-5" edge="1">
          <mxGeometry width="50" height="50" relative="1" as="geometry">
            <mxPoint x="714" y="361" as="sourcePoint" />
            <mxPoint x="764" y="311" as="targetPoint" />
          </mxGeometry>
        </mxCell>
        <mxCell id="_IG5eKqt5H05pdtFpNyz-23" value="" style="group" parent="1" vertex="1" connectable="0">
          <mxGeometry x="869" y="464" width="127.5" height="30" as="geometry" />
        </mxCell>
        <mxCell id="_IG5eKqt5H05pdtFpNyz-22" value="" style="rounded=0;whiteSpace=wrap;html=1;fillColor=#FFFFFF;strokeColor=#FFFFFF;" parent="_IG5eKqt5H05pdtFpNyz-23" vertex="1">
          <mxGeometry x="2.5" width="125" height="30" as="geometry" />
        </mxCell>
        <mxCell id="d-oLFdEzoJcVGDbmJ4wt-15" value="&amp;nbsp;Control System" style="text;html=1;strokeColor=none;fillColor=none;align=center;verticalAlign=middle;whiteSpace=wrap;rounded=0;fontColor=#000000;" parent="_IG5eKqt5H05pdtFpNyz-23" vertex="1">
          <mxGeometry width="123" height="30" as="geometry" />
        </mxCell>
        <mxCell id="_IG5eKqt5H05pdtFpNyz-25" value="" style="group" parent="1" vertex="1" connectable="0">
          <mxGeometry x="869" y="217" width="127.5" height="30" as="geometry" />
        </mxCell>
        <mxCell id="_IG5eKqt5H05pdtFpNyz-26" value="" style="rounded=0;whiteSpace=wrap;html=1;fillColor=#FFFFFF;strokeColor=#FFFFFF;" parent="_IG5eKqt5H05pdtFpNyz-25" vertex="1">
          <mxGeometry x="2.5" width="125" height="30" as="geometry" />
        </mxCell>
        <mxCell id="_IG5eKqt5H05pdtFpNyz-27" value="Admin" style="text;html=1;strokeColor=none;fillColor=none;align=center;verticalAlign=middle;whiteSpace=wrap;rounded=0;fontColor=#000000;" parent="_IG5eKqt5H05pdtFpNyz-25" vertex="1">
          <mxGeometry width="123" height="30" as="geometry" />
        </mxCell>
      </root>
    </mxGraphModel>
  </diagram>
</mxfile>
